<?xml version="1.0" encoding="utf-8"?>
<!-- Generator: Adobe Illustrator 18.0.0, SVG Export Plug-In . SVG Version: 6.00 Build 0)  -->
<!DOCTYPE svg PUBLIC "-//W3C//DTD SVG 1.1//EN" "http://www.w3.org/Graphics/SVG/1.1/DTD/svg11.dtd">
<svg version="1.1" id="Layer_1" xmlns="http://www.w3.org/2000/svg" xmlns:xlink="http://www.w3.org/1999/xlink" x="0px" y="0px"
	 viewBox="0 0 595.3 841.9" enable-background="new 0 0 595.3 841.9" xml:space="preserve">
<g>
	<path fill="#FFFFFF" stroke="#FFFFFF" d="M102.9,384.7l-5.4-12.9l-9.3-4.3l2.6-12.5l43.1,23.5L130,396l-48.1,1.8l2.7-12.9
		L102.9,384.7z M104.6,384.4l3.3-0.1c4.6-0.2,10.4-0.2,15.3-0.4l0.1-0.3c-4.5-2-9.7-4.2-13.9-6.3l-3-1.4L104.6,384.4z"/>
	<path fill="#FFFFFF" stroke="#FFFFFF" d="M172.5,462.6c1.9,3.4,4.9,6.4,7.9,7.6c3.2,1.3,5,0.8,5.7-1c0.8-1.9-1-3.3-3.9-6L178,459
		c-3.6-3.4-6-8.6-3.7-14.4c2.7-6.9,11.1-10.1,19.9-6.6c4.6,1.8,9,5.5,11.2,10.7l-1.4,0.8c-2-3-9.5-6.2-12.7-6.1
		c-3.2,0.2-6.4,1.5-6.1,4.8c0.2,2.1,1.3,3.5,4.3,6.4l4.1,3.9c4.2,4,5.7,8.5,3.5,14.1c-2.7,6.8-8.4,14.7-22.2,14.2
		c-5.8-0.9-8.1-2-16-8.4L172.5,462.6z"/>
	<path fill="#FFFFFF" stroke="#FFFFFF" d="M107.8,393.1h22.3v31.3h0.5l21.2-31.3h24.3l-25.1,34.2l30,50l-22.1,1l-20.9-33.4l-8,11.4
		v21h-22.3V393.1z"/>
</g>
</svg>
