<?xml version="1.0" encoding="utf-8"?>
<!-- Generator: Adobe Illustrator 18.0.0, SVG Export Plug-In . SVG Version: 6.00 Build 0)  -->
<!DOCTYPE svg PUBLIC "-//W3C//DTD SVG 1.1//EN" "http://www.w3.org/Graphics/SVG/1.1/DTD/svg11.dtd">
<svg version="1.1" id="Layer_1" xmlns="http://www.w3.org/2000/svg" xmlns:xlink="http://www.w3.org/1999/xlink" x="0px" y="0px"
	 viewBox="0 0 595.3 841.9" enable-background="new 0 0 595.3 841.9" xml:space="preserve">
<g>
	<path fill="#FFFFFF" d="M113.5,373.2l-5.2-14.9H82.1l-5.5,14.9l-27.2,8.3l34.8-78.1H107l35.2,78.1L113.5,373.2z M95.6,317.9h-0.2
		l-9,27.3h17.5L95.6,317.9z"/>
	<path fill="#FFFFFF" d="M178.7,373.2v-25c0-4.4-0.6-7.7-1.9-9.9c-1.3-2.2-3.4-3.3-6.3-3.3c-3.5,0-6.3,1.3-8.2,3.7
		c-2,2.5-2.9,6.6-2.9,12.4v22.1h-18v-52h16.4v9.6h0.2c1.8-3.7,4.3-6.4,7.6-8.1c3.3-1.8,7.1-2.6,11.3-2.6c3.5,0,6.6,0.6,9.1,1.7
		c2.5,1.2,4.6,2.7,6.2,4.6c1.6,1.9,2.8,4.1,3.5,6.5c0.7,2.5,1.1,5,1.1,7.7v32.7H178.7z"/>
	<path fill="#FFFFFF" d="M240.9,373.2c-0.1-1.5-0.2-2.9-0.3-4.2c-0.1-1.3-0.2-2.6-0.2-4h-0.2c-2.2,3.4-4.6,5.8-7.2,7.2
		c-2.6,1.4-5.7,2.1-9.3,2.1c-2.5,0-4.9-0.3-7.2-1c-2.3-0.6-4.4-1.6-6.2-2.9c-1.8-1.3-3.3-3-4.4-5c-1.1-2.1-1.6-4.6-1.6-7.5
		c0-4,1-7.2,2.9-9.5c1.9-2.4,4.3-4.1,7-5.3c2.8-1.2,5.7-2,8.8-2.3s5.8-0.5,8.1-0.5c1.5,0,3,0.1,4.3,0.2c1.4,0.1,2.7,0.3,4,0.5
		c-0.1-3-1-5.2-2.9-6.7c-1.9-1.5-4.9-2.2-9.1-2.2c-2.9,0-5.8,0.3-8.5,0.9c-2.7,0.6-5.4,1.6-8,3l-0.3-12.2c3.8-1.5,7.4-2.5,10.7-3
		c3.4-0.5,6.7-0.7,10.1-0.7c3.3,0,6.5,0.4,9.5,1.2c3,0.8,5.6,2,7.8,3.7c2.2,1.7,4,4,5.3,6.7c1.3,2.7,2,6,2,9.9v20.4
		c0,0.6,0,1.4,0,2.3c0,1,0.1,2,0.2,3c0.1,1,0.2,2.1,0.3,3.1c0.1,1.1,0.3,2,0.5,2.9H240.9z M235.8,350c-1.4-0.1-2.6-0.1-3.5-0.1
		c-3.8,0-6.6,0.6-8.4,1.8c-1.8,1.2-2.7,2.9-2.7,5c0,1.9,0.7,3.3,2.1,4.3c1.4,1,3.2,1.5,5.4,1.5c1.7,0,3.2-0.4,4.5-1.1
		c1.4-0.7,2.5-1.7,3.5-2.8c1-1.2,1.7-2.5,2.2-3.9c0.5-1.5,0.7-2.9,0.7-4.4C238.5,350.1,237.2,350,235.8,350z"/>
	<path fill="#FFFFFF" d="M299,374.2c-1.7,0.2-3.5,0.3-5.4,0.3c-7.1,0-12.2-1.4-15.3-4.3s-4.7-7.7-4.7-14.3v-22h-10.3v-12.6h10.3
		v-11.7l18-5.5v17.2h12.6v12.6h-12.6v19.5c0,3.2,0.5,5.5,1.5,7c1,1.5,2.9,2.2,5.7,2.2c0.6,0,1.4-0.1,2.3-0.2c1-0.1,2-0.3,3-0.5
		l0.6,11.7C302.7,373.8,300.7,374,299,374.2z"/>
	<path fill="#FFFFFF" d="M325.2,330.6h-13.7l6.7-27.1H335L325.2,330.6z"/>
	<path fill="#FFFFFF" d="M377.1,365.8c-1.5,2.3-3.4,4-5.7,5.3c-2.3,1.3-4.9,2.2-7.8,2.6c-2.9,0.5-5.7,0.7-8.5,0.7
		c-4.2,0-7.8-0.2-10.8-0.7c-3-0.4-5.7-1-8.1-1.8l1-13.1c3.2,1.3,6.2,2.3,9,2.8c2.8,0.5,5.4,0.8,7.8,0.8c3.1,0,5.1-0.4,6-1.2
		c0.9-0.8,1.3-1.8,1.3-2.9c0-1.5-0.6-2.6-1.9-3.3c-1.3-0.8-2.8-1.4-4.7-1.9s-3.9-1.1-6.1-1.6s-4.2-1.4-6.1-2.5
		c-1.9-1.1-3.5-2.6-4.7-4.4c-1.3-1.8-1.9-4.3-1.9-7.4c0-2.8,0.6-5.3,1.8-7.4c1.2-2.1,2.8-3.9,4.8-5.3c2-1.4,4.4-2.5,7.1-3.2
		c2.7-0.7,5.7-1.1,8.8-1.1c3,0,6.1,0.2,9.3,0.7c3.2,0.5,6.1,1.2,8.6,2.3l-1.4,12.5c-2.3-1.3-4.8-2.2-7.4-2.7
		c-2.6-0.5-4.8-0.7-6.7-0.7c-2.3,0-4.3,0.3-5.8,0.8c-1.6,0.6-2.3,1.5-2.3,2.7c0,1.3,0.7,2.3,2,3c1.3,0.7,3,1.2,4.9,1.7
		c2,0.5,4.1,1,6.4,1.6c2.3,0.6,4.5,1.4,6.4,2.5c2,1.1,3.6,2.7,4.9,4.7c1.3,2,2,4.6,2,7.9C379.3,360.6,378.6,363.5,377.1,365.8z"/>
	<path fill="#FFFFFF" d="M122,536.9c-7.2,1-15,1.5-23.2,1.5c-11.2,0-22.3-1.5-33.5-4.4c-11.1-3-21.2-7.7-30.2-14.3
		c-9-6.6-16.3-15.2-21.9-25.8c-5.6-10.6-8.4-23.5-8.4-38.7c0-14.1,2.3-26.5,7-37.2c4.7-10.6,11.1-19.5,19.5-26.7
		c8.3-7.1,18.1-12.5,29.4-16s23.6-5.2,36.9-5.2c6.7,0,13.7,0.6,21.1,1.7c7.4,1.2,16.6,3.4,27.6,6.6l-3.5,35.2
		c-8.1-4.5-15.5-7.5-22.4-9.1c-6.8-1.6-13.4-2.3-19.8-2.3c-7.8,0-14.8,1.3-21.1,4c-6.3,2.6-11.7,6.3-16.1,11
		c-4.4,4.7-7.8,10.2-10.3,16.7c-2.4,6.5-3.6,13.5-3.6,21.1c0,8.1,1.4,15.3,4.1,21.7c2.7,6.4,6.5,11.7,11.3,16.1
		c4.8,4.3,10.5,7.7,17.1,10c6.6,2.3,13.9,3.5,21.8,3.5c6.1,0,12.3-0.6,18.8-1.9c6.4-1.2,13.7-3.4,21.8-6.5l2.1,34
		C137.4,534.2,129.2,535.9,122,536.9z"/>
	<path fill="#FFFFFF" d="M249.4,535.6h-53.6l-54.5-162.7h46.2l36.1,127.7h0.5l36.4-127.7h44.5L249.4,535.6z"/>
</g>
</svg>
