<?xml version="1.0" encoding="utf-8"?>
<!-- Generator: Adobe Illustrator 18.0.0, SVG Export Plug-In . SVG Version: 6.00 Build 0)  -->
<!DOCTYPE svg PUBLIC "-//W3C//DTD SVG 1.1//EN" "http://www.w3.org/Graphics/SVG/1.1/DTD/svg11.dtd">
<svg version="1.1" id="Layer_1" xmlns="http://www.w3.org/2000/svg" xmlns:xlink="http://www.w3.org/1999/xlink" x="0px" y="0px"
	 viewBox="0 0 595.3 841.9" enable-background="new 0 0 595.3 841.9" xml:space="preserve">
<g>
	<path fill="#FFFFFF" d="M48.4,440.1H28.8l-3.9,15.2H10.2l20.1-63.8h17.2l20.1,63.8H52.3L48.4,440.1z M45.5,428.8l-1.6-5.9
		c-1.8-6.4-3.4-13.9-5.2-20.6h-0.4c-1.5,6.8-3.2,14.2-5,20.6l-1.6,5.9H45.5z"/>
	<path fill="#FFFFFF" d="M73.2,406.7h11.7l1,6.2h0.4c4.1-3.9,9-7.3,15.6-7.3c10.6,0,15.1,7.4,15.1,19.6v30.1h-14.4V427
		c0-7-1.9-9.2-6-9.2c-3.6,0-5.9,1.7-9,4.7v32.8H73.2V406.7z"/>
	<path fill="#FFFFFF" d="M154.7,424c-0.3-4.3-2.4-7-7.6-7c-4.1,0-8.2,1.7-12.9,4.4l-5.1-9.5c6.2-3.7,13.1-6.4,20.7-6.4
		c12.4,0,19.3,7,19.3,21.9v27.8h-11.7l-1.1-5H156c-4.1,3.6-8.7,6.2-14.2,6.2c-8.8,0-14.4-6.5-14.4-14.7
		C127.4,431.6,135.5,426,154.7,424z M146.7,445.3c3.3,0,5.5-1.6,8-4.1v-8.5c-10.3,1.4-13.6,4.3-13.6,8
		C141.1,443.8,143.2,445.3,146.7,445.3z"/>
	<path fill="#FFFFFF" d="M183.4,417.9h-6.7v-10.7l7.4-0.6l1.7-12.9h11.9v12.9h11.6v11.3h-11.6v19.5c0,5.5,2.4,7.7,6.3,7.7
		c1.6,0,3.3-0.5,4.6-1l2.3,10.5c-2.5,0.8-6.1,1.8-10.8,1.8c-12,0-16.7-7.5-16.7-18.8V417.9z"/>
	<path fill="#FFFFFF" d="M230.7,413.4h-13.4l6.6-26.5h16.4L230.7,413.4z"/>
	<path fill="#FFFFFF" d="M253.6,440.7c4.4,3.3,8.4,5.1,12.5,5.1c4.3,0,6.2-1.6,6.2-4.1c0-3.2-4.9-4.7-9.9-6.7
		c-5.9-2.3-12.8-6.3-12.8-14.3c0-9,7.3-15.2,18.6-15.2c7.4,0,12.9,3,17.1,6.2l-6.5,8.6c-3.5-2.5-6.9-4.1-10.3-4.1
		c-3.7,0-5.5,1.4-5.5,3.8c0,3.1,4.5,4.3,9.5,6.2c6.2,2.3,13.1,5.7,13.1,14.6c0,8.8-6.9,15.7-20,15.7c-6.4,0-13.7-2.7-18.6-6.8
		L253.6,440.7z"/>
	<path fill="#FFFFFF" d="M343.7,390.3c7.9,0,14.6,3.9,18.9,8.3l-7.9,8.9c-3.2-2.9-6.3-4.8-10.8-4.8c-8.9,0-15.9,7.7-15.9,20.6
		c0,13.1,6.2,20.7,15.5,20.7c5.3,0,9-2.3,12.1-5.7l7.9,8.7c-5.3,6.2-12.3,9.4-20.3,9.4c-16.5,0-30-11.3-30-32.7
		C313.2,402.6,327.2,390.3,343.7,390.3z"/>
	<path fill="#FFFFFF" d="M364.8,391.4h15.3l7.7,29.8c1.9,6.9,3.1,13.4,5.1,20.5h0.4c2-7,3.2-13.5,5.1-20.5l7.5-29.8h14.8l-19.3,63.8
		h-17.3L364.8,391.4z"/>
</g>
</svg>
