<?xml version="1.0" encoding="utf-8"?>
<!-- Generator: Adobe Illustrator 18.0.0, SVG Export Plug-In . SVG Version: 6.00 Build 0)  -->
<!DOCTYPE svg PUBLIC "-//W3C//DTD SVG 1.1//EN" "http://www.w3.org/Graphics/SVG/1.1/DTD/svg11.dtd">
<svg version="1.1" id="Layer_1" xmlns="http://www.w3.org/2000/svg" xmlns:xlink="http://www.w3.org/1999/xlink" x="0px" y="0px"
	 viewBox="0 0 595.3 841.9" enable-background="new 0 0 595.3 841.9" xml:space="preserve">
<g>
	<path fill="#FFFFFF" d="M110.6,354.5l-10-23.6l-17-7.8l4.7-22.8l79,43.1l-7,32l-88.1,3.3l4.9-23.6L110.6,354.5z M113.8,354l6.1-0.2
		c8.5-0.4,19.1-0.4,28-0.7l0.1-0.5c-8.2-3.6-17.9-7.7-25.5-11.5l-5.5-2.6L113.8,354z"/>
	<path fill="#FFFFFF" d="M238.3,497.3c3.6,6.3,9,11.8,14.4,14c5.9,2.3,9.2,1.4,10.5-1.9c1.4-3.5-1.9-6.1-7.2-11.1l-7.7-7.5
		c-6.7-6.3-11-15.7-6.8-26.4c5-12.6,20.4-18.4,36.5-12.1c8.4,3.3,16.4,10.2,20.6,19.5l-2.5,1.4c-3.6-5.5-17.4-11.4-23.2-11.1
		c-5.9,0.4-11.7,2.8-11.2,8.9c0.3,3.8,2.3,6.4,8,11.7l7.6,7.1c7.8,7.3,10.5,15.7,6.4,25.9c-4.9,12.5-15.4,27-40.8,25.9
		c-10.5-1.7-14.8-3.6-29.4-15.4L238.3,497.3z"/>
	<path fill="#FFFFFF" d="M119.7,370h40.8v57.5h1l38.9-57.5H245L199,432.7l55.1,91.6l-40.5,1.9L175.2,465l-14.7,20.9v38.5h-40.8V370z
		"/>
</g>
<g>
	<path d="M685.9,563.2v5.5l-2.4,0.5v0.2c1.5,1.6,2.8,3.6,2.8,6.3c0,4.4-3.2,6.2-8.1,6.2h-12.2V575h11.3c2.5,0,3.2-0.6,3.2-2
		c0-1.3-0.6-2-1.5-3h-13v-6.8H685.9z"/>
	<path d="M679,594.3c1.4-0.2,2.1-1,2.1-2.8c0-1.4-0.6-2.9-1.7-5l4.4-2.4c1.7,2.8,2.6,5.6,2.6,8.7c0,5.1-2.8,8.2-9.3,8.2h-11v-5.5
		l1.9-0.5v-0.2c-1.4-1.6-2.4-3.3-2.4-5.5c0-3.7,2.9-5.9,6.1-5.9C675.9,583.5,678.2,586.7,679,594.3z M670.9,591.8
		c0,1.1,0.6,1.7,1.3,2.5h2.7c-0.5-3.2-1.5-4.3-2.6-4.3C671.4,590,670.9,590.6,670.9,591.8z"/>
	<path d="M680.6,604.4v-2.6h5.1l0.2,3l5.1,0.8v5.6h-5.1v4.5h-5.3v-4.5h-6.8c-2.2,0-2.9,1.1-2.9,2.4c0,0.6,0.2,1.3,0.3,1.7l-4.9,1
		c-0.3-1-0.7-2.5-0.7-4.7c0-5.1,3.2-7.3,8.1-7.3H680.6z"/>
</g>
<g>
	<path fill="#FFFFFF" d="M761.7,603.6l2.2-3l1.5,0.7l0.1-0.1c-0.2-1.4-0.1-3,1-4.5c1.7-2.3,4.1-2,6.8-0.1l6.5,4.8l-2.7,3.6l-6.1-4.5
		c-1.4-1-1.9-0.9-2.5-0.2c-0.5,0.7-0.5,1.3-0.4,2.2l6.9,5.2l-2.7,3.6L761.7,603.6z"/>
	<path fill="#FFFFFF" d="M773.1,587.7c2.3-3.1,5.7-2.9,8.6-0.8c0.6,0.5,1.1,1,1.3,1.2l-4.5,6c1.6,0.7,2.7,0.1,3.6-1.1
		c0.5-0.7,0.8-1.6,1-2.6l3,0.4c0,1.7-0.8,3.6-1.6,4.8c-2.3,3.1-6.1,4-9.6,1.3C771.4,594.4,771.2,590.3,773.1,587.7z M778.6,589.4
		c-0.9-0.7-1.9-0.9-2.7,0.2c-0.6,0.8-0.7,1.8,0.4,2.9L778.6,589.4z"/>
	<path fill="#FFFFFF" d="M773.3,579.4l2.7-3.6l3.4,2.5l1.5,1.2c-0.1-1.2,0.2-2.5,0.9-3.4c1.9-2.5,5.2-2.6,8.4-0.1
		c3.7,2.7,4.1,6.4,2.5,8.7c-0.7,0.9-1.8,1.5-3.4,1.6l-0.1,0.1l0.9,1.1l-2.1,2.8L773.3,579.4z M789,583.3c0.6-0.8,0.5-2.1-1.5-3.6
		c-1.7-1.3-2.8-1.3-3.6-0.3c-0.4,0.5-0.5,1.1-0.3,2l3.9,2.9C788.2,584.1,788.7,583.8,789,583.3z"/>
	<path fill="#FFFFFF" d="M788.8,566.6c2.3-3.1,5.7-2.9,8.5-0.8c0.6,0.5,1.1,1,1.3,1.2l-4.5,6c1.6,0.7,2.7,0.1,3.6-1.1
		c0.5-0.7,0.8-1.6,1-2.6l3,0.4c0,1.7-0.8,3.6-1.6,4.8c-2.3,3.1-6.1,4-9.6,1.3C787.2,573.2,786.9,569.2,788.8,566.6z M794.3,568.3
		c-0.9-0.7-1.9-0.9-2.7,0.2c-0.6,0.8-0.7,1.8,0.3,2.9L794.3,568.3z"/>
	<path fill="#FFFFFF" d="M789,558.2l2.7-3.6l11.1,8.3c0.7,0.5,1.2,0.4,1.4,0.1c0.1-0.1,0.2-0.2,0.2-0.4l3,1.6c-0.1,0.5-0.4,1.2-1,2
		c-1.8,2.5-4,2.1-6.4,0.3L789,558.2z"/>
</g>
<g>
	<path d="M859.3,679.2h4.9v4.6l-0.2,2.4c1-0.9,2.3-1.8,4.3-1.8c3.1,0,4.4,2.3,4.4,5.8v8.7h-4.9v-8.1c0-1.8-0.5-2.3-1.4-2.3
		c-0.9,0-1.4,0.4-2.2,1.1v9.3h-4.9V679.2z"/>
	<path d="M880.6,684.4c3.6,0,7,2.7,7,7.4c0,4.7-3.4,7.4-7,7.4s-7-2.7-7-7.4C873.6,687.1,877,684.4,880.6,684.4z M880.6,695.4
		c1.5,0,2-1.4,2-3.5c0-2.2-0.6-3.5-2-3.5s-2,1.4-2,3.5C878.6,694,879.1,695.4,880.6,695.4z"/>
	<path d="M887.4,684.8h4.9l1.5,6.2c0.3,1.4,0.7,2.9,1,4.4h0.1c0.3-1.5,0.7-3,1-4.4l1.5-6.2h4.7l-4.5,14.2h-5.6L887.4,684.8z"/>
	<path d="M909.9,689.8c-0.1-1-0.7-1.5-2-1.5c-1,0-2.1,0.4-3.6,1.2l-1.7-3.2c2-1.2,4-1.9,6.2-1.9c3.7,0,5.9,2,5.9,6.6v7.9h-4
		l-0.3-1.4h-0.1c-1.1,1-2.4,1.7-3.9,1.7c-2.7,0-4.3-2-4.3-4.4C902.2,692,904.4,690.3,909.9,689.8z M908.1,695.5c0.8,0,1.2-0.4,1.8-1
		v-1.9c-2.3,0.3-3.1,1.1-3.1,1.9C906.8,695.2,907.3,695.5,908.1,695.5z"/>
	<path d="M916.5,679.2h4.9v14.9c0,1,0.5,1.2,0.8,1.2c0.2,0,0.3,0,0.5-0.1l0.6,3.6c-0.5,0.2-1.3,0.4-2.4,0.4c-3.3,0-4.4-2.2-4.4-5.3
		V679.2z"/>
</g>
</svg>
